<?xml version="1.0" encoding="UTF-8" standalone="no"?>
<!DOCTYPE svg PUBLIC "-//W3C//DTD SVG 1.1//EN"
 "http://www.w3.org/Graphics/SVG/1.1/DTD/svg11.dtd">
<!-- Generated by graphviz version 2.36.0 (20140111.2315)
 -->
<!-- Title: BasicCalendarMonth Pages: 1 -->
<svg width="668pt" height="504pt"
 viewBox="0.00 0.00 668.00 504.00" xmlns="http://www.w3.org/2000/svg" xmlns:xlink="http://www.w3.org/1999/xlink">
<g id="graph0" class="graph" transform="scale(1 1) rotate(0) translate(4 500)">
<title>BasicCalendarMonth</title>
<polygon fill="white" stroke="none" points="-4,4 -4,-500 664,-500 664,4 -4,4"/>
<!-- basic&#45;element -->
<g id="node1" class="node"><title>basic&#45;element</title>
<text text-anchor="middle" x="305" y="-384" font-family="Helvetica,sans-Serif" font-size="20.00">basic&#45;element</text>
</g>
<!-- HTMLElement -->
<g id="node2" class="node"><title>HTMLElement</title>
<text text-anchor="middle" x="305" y="-472" font-family="Helvetica,sans-Serif" font-size="20.00">HTMLElement</text>
</g>
<!-- basic&#45;element&#45;&gt;HTMLElement -->
<g id="edge1" class="edge"><title>basic&#45;element&#45;&gt;HTMLElement</title>
<path fill="none" stroke="#7f7f7f" d="M305,-408.403C305,-420.254 305,-436.183 305,-449.708"/>
<polygon fill="#7f7f7f" stroke="#7f7f7f" points="301.5,-449.916 305,-459.916 308.5,-449.916 301.5,-449.916"/>
<text text-anchor="middle" x="320.839" y="-429.5" font-family="Helvetica,sans-Serif" font-size="15.00" fill="#7f7f7f"> &#160;is a</text>
</g>
<!-- basic&#45;calendar&#45;month -->
<g id="node3" class="node"><title>basic&#45;calendar&#45;month</title>
<text text-anchor="middle" x="180" y="-12" font-family="Helvetica,sans-Serif" font-size="20.00">basic&#45;calendar&#45;month</text>
</g>
<!-- basic&#45;calendar&#45;month&#45;&gt;basic&#45;element -->
<g id="edge2" class="edge"><title>basic&#45;calendar&#45;month&#45;&gt;basic&#45;element</title>
<path fill="none" stroke="#7f7f7f" d="M75.8145,-32.4315C36.0084,-43.9582 0,-65.3446 0,-105 0,-105 0,-105 0,-303 0,-349.797 134.693,-372.376 225.06,-382.258"/>
<polygon fill="#7f7f7f" stroke="#7f7f7f" points="224.713,-385.741 235.027,-383.317 225.452,-378.78 224.713,-385.741"/>
<text text-anchor="middle" x="15.8386" y="-209.5" font-family="Helvetica,sans-Serif" font-size="15.00" fill="#7f7f7f"> &#160;is a</text>
</g>
<!-- basic&#45;month&#45;and&#45;year -->
<g id="node4" class="node"><title>basic&#45;month&#45;and&#45;year</title>
<text text-anchor="middle" x="155" y="-208" font-family="Helvetica,sans-Serif" font-size="20.00">basic&#45;month&#45;and&#45;year</text>
</g>
<!-- basic&#45;calendar&#45;month&#45;&gt;basic&#45;month&#45;and&#45;year -->
<g id="edge3" class="edge"><title>basic&#45;calendar&#45;month&#45;&gt;basic&#45;month&#45;and&#45;year</title>
<path fill="none" stroke="#7f7f7f" stroke-dasharray="5,2" d="M175.591,-36.3694C169.814,-60.0585 159.952,-103.912 156,-142 154.519,-156.273 154.178,-172.246 154.247,-185.422"/>
<polygon fill="#7f7f7f" stroke="#7f7f7f" points="150.751,-185.781 154.385,-195.733 157.75,-185.687 150.751,-185.781"/>
<text text-anchor="middle" x="183.347" y="-101.5" font-family="Helvetica,sans-Serif" font-size="15.00" fill="#7f7f7f">has a</text>
</g>
<!-- basic&#45;days&#45;of&#45;week -->
<g id="node5" class="node"><title>basic&#45;days&#45;of&#45;week</title>
<text text-anchor="middle" x="251" y="-154" font-family="Helvetica,sans-Serif" font-size="20.00">basic&#45;days&#45;of&#45;week</text>
</g>
<!-- basic&#45;calendar&#45;month&#45;&gt;basic&#45;days&#45;of&#45;week -->
<g id="edge4" class="edge"><title>basic&#45;calendar&#45;month&#45;&gt;basic&#45;days&#45;of&#45;week</title>
<path fill="none" stroke="#7f7f7f" stroke-dasharray="5,2" d="M188.706,-36.1667C200.949,-60.3076 223.356,-104.491 237.696,-132.766"/>
<polygon fill="#7f7f7f" stroke="#7f7f7f" points="234.578,-134.357 242.223,-141.693 240.821,-131.191 234.578,-134.357"/>
<text text-anchor="middle" x="223.347" y="-57.5" font-family="Helvetica,sans-Serif" font-size="15.00" fill="#7f7f7f">has a</text>
</g>
<!-- basic&#45;calendar&#45;month&#45;days -->
<g id="node6" class="node"><title>basic&#45;calendar&#45;month&#45;days</title>
<text text-anchor="middle" x="396" y="-100" font-family="Helvetica,sans-Serif" font-size="20.00">basic&#45;calendar&#45;month&#45;days</text>
</g>
<!-- basic&#45;calendar&#45;month&#45;&gt;basic&#45;calendar&#45;month&#45;days -->
<g id="edge5" class="edge"><title>basic&#45;calendar&#45;month&#45;&gt;basic&#45;calendar&#45;month&#45;days</title>
<path fill="none" stroke="#7f7f7f" stroke-dasharray="5,2" d="M222.933,-36.0937C257.605,-49.8984 306.542,-69.3824 343.536,-84.1114"/>
<polygon fill="#7f7f7f" stroke="#7f7f7f" points="342.563,-87.4913 353.148,-87.9387 345.152,-80.9878 342.563,-87.4913"/>
<text text-anchor="middle" x="326.347" y="-57.5" font-family="Helvetica,sans-Serif" font-size="15.00" fill="#7f7f7f">has a</text>
</g>
<!-- basic&#45;month&#45;and&#45;year&#45;&gt;basic&#45;element -->
<g id="edge6" class="edge"><title>basic&#45;month&#45;and&#45;year&#45;&gt;basic&#45;element</title>
<path fill="none" stroke="#7f7f7f" d="M117.688,-232.084C79.3934,-251.991 28.7619,-286.453 54.3228,-320 75.1396,-347.321 159.798,-366.544 225.035,-377.641"/>
<polygon fill="#7f7f7f" stroke="#7f7f7f" points="224.478,-381.096 234.917,-379.286 225.627,-374.191 224.478,-381.096"/>
<text text-anchor="middle" x="70.8386" y="-297.5" font-family="Helvetica,sans-Serif" font-size="15.00" fill="#7f7f7f"> &#160;is a</text>
</g>
<!-- basic&#45;month&#45;name -->
<g id="node7" class="node"><title>basic&#45;month&#45;name</title>
<text text-anchor="middle" x="186" y="-296" font-family="Helvetica,sans-Serif" font-size="20.00">basic&#45;month&#45;name</text>
</g>
<!-- basic&#45;month&#45;and&#45;year&#45;&gt;basic&#45;month&#45;name -->
<g id="edge7" class="edge"><title>basic&#45;month&#45;and&#45;year&#45;&gt;basic&#45;month&#45;name</title>
<path fill="none" stroke="#7f7f7f" stroke-dasharray="5,2" d="M161.273,-232.403C165.587,-244.371 171.401,-260.499 176.307,-274.109"/>
<polygon fill="#7f7f7f" stroke="#7f7f7f" points="173.158,-275.695 179.842,-283.916 179.743,-273.322 173.158,-275.695"/>
<text text-anchor="middle" x="192.347" y="-253.5" font-family="Helvetica,sans-Serif" font-size="15.00" fill="#7f7f7f">has a</text>
</g>
<!-- basic&#45;days&#45;of&#45;week&#45;&gt;basic&#45;element -->
<g id="edge9" class="edge"><title>basic&#45;days&#45;of&#45;week&#45;&gt;basic&#45;element</title>
<path fill="none" stroke="#7f7f7f" d="M261.003,-178.008C263.941,-183.59 266.92,-189.923 269,-196 288.536,-253.089 298.268,-323.512 302.413,-361.529"/>
<polygon fill="#7f7f7f" stroke="#7f7f7f" points="298.965,-362.212 303.482,-371.796 305.928,-361.487 298.965,-362.212"/>
<text text-anchor="middle" x="303.839" y="-253.5" font-family="Helvetica,sans-Serif" font-size="15.00" fill="#7f7f7f"> &#160;is a</text>
</g>
<!-- basic&#45;calendar&#45;month&#45;days&#45;&gt;basic&#45;element -->
<g id="edge10" class="edge"><title>basic&#45;calendar&#45;month&#45;days&#45;&gt;basic&#45;element</title>
<path fill="none" stroke="#7f7f7f" d="M390.445,-124.216C375.151,-171.61 332.335,-304.291 313.771,-361.821"/>
<polygon fill="#7f7f7f" stroke="#7f7f7f" points="310.339,-361.059 310.598,-371.651 317,-363.209 310.339,-361.059"/>
<text text-anchor="middle" x="365.839" y="-253.5" font-family="Helvetica,sans-Serif" font-size="15.00" fill="#7f7f7f"> &#160;is a</text>
</g>
<!-- basic&#45;calendar&#45;day -->
<g id="node8" class="node"><title>basic&#45;calendar&#45;day</title>
<text text-anchor="middle" x="471" y="-296" font-family="Helvetica,sans-Serif" font-size="20.00">basic&#45;calendar&#45;day</text>
</g>
<!-- basic&#45;calendar&#45;month&#45;days&#45;&gt;basic&#45;calendar&#45;day -->
<g id="edge11" class="edge"><title>basic&#45;calendar&#45;month&#45;days&#45;&gt;basic&#45;calendar&#45;day</title>
<path fill="none" stroke="#7f7f7f" stroke-dasharray="5,2" d="M395.876,-124.366C396.308,-149.26 399.416,-196.049 415.306,-232 422.504,-248.286 434.567,-263.941 445.629,-276.211"/>
<polygon fill="#7f7f7f" stroke="#7f7f7f" points="443.304,-278.848 452.693,-283.757 448.414,-274.064 443.304,-278.848"/>
<text text-anchor="middle" x="434.347" y="-209.5" font-family="Helvetica,sans-Serif" font-size="15.00" fill="#7f7f7f">has a</text>
</g>
<!-- basic&#45;calendar&#45;week -->
<g id="node9" class="node"><title>basic&#45;calendar&#45;week</title>
<text text-anchor="middle" x="561" y="-208" font-family="Helvetica,sans-Serif" font-size="20.00">basic&#45;calendar&#45;week</text>
</g>
<!-- basic&#45;calendar&#45;month&#45;days&#45;&gt;basic&#45;calendar&#45;week -->
<g id="edge12" class="edge"><title>basic&#45;calendar&#45;month&#45;days&#45;&gt;basic&#45;calendar&#45;week</title>
<path fill="none" stroke="#7f7f7f" stroke-dasharray="5,2" d="M422.51,-124.031C450.452,-141.981 494.617,-170.354 525.54,-190.22"/>
<polygon fill="#7f7f7f" stroke="#7f7f7f" points="523.977,-193.375 534.282,-195.836 527.76,-187.486 523.977,-193.375"/>
<text text-anchor="middle" x="521.347" y="-155.5" font-family="Helvetica,sans-Serif" font-size="15.00" fill="#7f7f7f">has a</text>
</g>
<!-- basic&#45;month&#45;name&#45;&gt;basic&#45;element -->
<g id="edge8" class="edge"><title>basic&#45;month&#45;name&#45;&gt;basic&#45;element</title>
<path fill="none" stroke="#7f7f7f" d="M209.795,-320.197C227.956,-333.321 253.159,-351.535 273.072,-365.926"/>
<polygon fill="#7f7f7f" stroke="#7f7f7f" points="271.091,-368.812 281.246,-371.833 275.191,-363.139 271.091,-368.812"/>
<text text-anchor="middle" x="272.839" y="-341.5" font-family="Helvetica,sans-Serif" font-size="15.00" fill="#7f7f7f"> &#160;is a</text>
</g>
<!-- basic&#45;calendar&#45;day&#45;&gt;basic&#45;element -->
<g id="edge15" class="edge"><title>basic&#45;calendar&#45;day&#45;&gt;basic&#45;element</title>
<path fill="none" stroke="#7f7f7f" d="M437.806,-320.197C411.71,-333.717 375.188,-352.637 347.048,-367.216"/>
<polygon fill="#7f7f7f" stroke="#7f7f7f" points="345.122,-364.272 337.853,-371.98 348.342,-370.487 345.122,-364.272"/>
<text text-anchor="middle" x="418.839" y="-341.5" font-family="Helvetica,sans-Serif" font-size="15.00" fill="#7f7f7f"> &#160;is a</text>
</g>
<!-- basic&#45;calendar&#45;week&#45;&gt;basic&#45;element -->
<g id="edge13" class="edge"><title>basic&#45;calendar&#45;week&#45;&gt;basic&#45;element</title>
<path fill="none" stroke="#7f7f7f" d="M569.505,-232.267C579.288,-254.885 591.64,-294.64 572,-320 549.159,-349.494 455.187,-368.649 385.148,-379.122"/>
<polygon fill="#7f7f7f" stroke="#7f7f7f" points="384.389,-375.696 375,-380.605 385.4,-382.623 384.389,-375.696"/>
<text text-anchor="middle" x="597.839" y="-297.5" font-family="Helvetica,sans-Serif" font-size="15.00" fill="#7f7f7f"> &#160;is a</text>
</g>
<!-- basic&#45;calendar&#45;week&#45;&gt;basic&#45;calendar&#45;day -->
<g id="edge14" class="edge"><title>basic&#45;calendar&#45;week&#45;&gt;basic&#45;calendar&#45;day</title>
<path fill="none" stroke="#7f7f7f" stroke-dasharray="5,2" d="M542.787,-232.403C529.403,-245.193 511.048,-262.732 496.248,-276.874"/>
<polygon fill="#7f7f7f" stroke="#7f7f7f" points="493.691,-274.477 488.879,-283.916 498.527,-279.538 493.691,-274.477"/>
<text text-anchor="middle" x="542.347" y="-253.5" font-family="Helvetica,sans-Serif" font-size="15.00" fill="#7f7f7f">has a</text>
</g>
</g>
</svg>
