<?xml version="1.0" encoding="UTF-8" standalone="no"?>
<!DOCTYPE svg PUBLIC "-//W3C//DTD SVG 1.1//EN"
 "http://www.w3.org/Graphics/SVG/1.1/DTD/svg11.dtd">
<!-- Generated by graphviz version 2.36.0 (20140111.2315)
 -->
<!-- Title: BasicSequence Pages: 1 -->
<svg width="327pt" height="572pt"
 viewBox="0.00 0.00 327.00 572.00" xmlns="http://www.w3.org/2000/svg" xmlns:xlink="http://www.w3.org/1999/xlink">
<g id="graph0" class="graph" transform="scale(1 1) rotate(0) translate(4 568)">
<title>BasicSequence</title>
<polygon fill="white" stroke="none" points="-4,4 -4,-568 323,-568 323,4 -4,4"/>
<!-- core&#45;selection -->
<g id="node1" class="node"><title>core&#45;selection</title>
<text text-anchor="middle" x="77" y="-452" font-family="Helvetica,sans-Serif" font-size="20.00">core&#45;selection</text>
</g>
<!-- HTMLElement -->
<g id="node2" class="node"><title>HTMLElement</title>
<text text-anchor="middle" x="147" y="-540" font-family="Helvetica,sans-Serif" font-size="20.00">HTMLElement</text>
</g>
<!-- core&#45;selection&#45;&gt;HTMLElement -->
<g id="edge1" class="edge"><title>core&#45;selection&#45;&gt;HTMLElement</title>
<path fill="none" stroke="#7f7f7f" d="M91.1655,-476.403C101.385,-488.958 115.329,-506.09 126.726,-520.092"/>
<polygon fill="#7f7f7f" stroke="#7f7f7f" points="124.067,-522.37 133.094,-527.916 129.496,-517.951 124.067,-522.37"/>
<text text-anchor="middle" x="130.671" y="-497.5" font-family="Helvetica,sans-Serif" font-size="15.00" fill="#7f7f7f">is a</text>
</g>
<!-- core&#45;selector -->
<g id="node3" class="node"><title>core&#45;selector</title>
<text text-anchor="middle" x="156" y="-364" font-family="Helvetica,sans-Serif" font-size="20.00">core&#45;selector</text>
</g>
<!-- core&#45;selector&#45;&gt;core&#45;selection -->
<g id="edge2" class="edge"><title>core&#45;selector&#45;&gt;core&#45;selection</title>
<path fill="none" stroke="#7f7f7f" stroke-dasharray="5,2" d="M140.013,-388.403C128.373,-401.075 112.448,-418.411 99.5208,-432.484"/>
<polygon fill="#7f7f7f" stroke="#7f7f7f" points="96.8809,-430.184 92.6934,-439.916 102.036,-434.919 96.8809,-430.184"/>
<text text-anchor="middle" x="142.347" y="-409.5" font-family="Helvetica,sans-Serif" font-size="15.00" fill="#7f7f7f">has a</text>
</g>
<!-- core&#45;selector&#45;&gt;HTMLElement -->
<g id="edge6" class="edge"><title>core&#45;selector&#45;&gt;HTMLElement</title>
<path fill="none" stroke="#7f7f7f" d="M160.767,-388.314C162.09,-393.912 163.343,-400.178 164,-406 168.399,-444.988 160.496,-490.059 154.053,-518.05"/>
<polygon fill="#7f7f7f" stroke="#7f7f7f" points="150.621,-517.351 151.684,-527.893 157.427,-518.99 150.621,-517.351"/>
<text text-anchor="middle" x="181.839" y="-453.5" font-family="Helvetica,sans-Serif" font-size="15.00" fill="#7f7f7f"> &#160;is a</text>
</g>
<!-- basic&#45;sequence -->
<g id="node4" class="node"><title>basic&#45;sequence</title>
<text text-anchor="middle" x="156" y="-100" font-family="Helvetica,sans-Serif" font-size="20.00">basic&#45;sequence</text>
</g>
<!-- basic&#45;modes -->
<g id="node5" class="node"><title>basic&#45;modes</title>
<text text-anchor="middle" x="156" y="-188" font-family="Helvetica,sans-Serif" font-size="20.00">basic&#45;modes</text>
</g>
<!-- basic&#45;sequence&#45;&gt;basic&#45;modes -->
<g id="edge3" class="edge"><title>basic&#45;sequence&#45;&gt;basic&#45;modes</title>
<path fill="none" stroke="#7f7f7f" d="M156,-124.403C156,-136.254 156,-152.183 156,-165.708"/>
<polygon fill="#7f7f7f" stroke="#7f7f7f" points="152.5,-165.916 156,-175.916 159.5,-165.916 152.5,-165.916"/>
<text text-anchor="middle" x="171.839" y="-145.5" font-family="Helvetica,sans-Serif" font-size="15.00" fill="#7f7f7f"> &#160;is a</text>
</g>
<!-- basic&#45;selector -->
<g id="node6" class="node"><title>basic&#45;selector</title>
<text text-anchor="middle" x="156" y="-276" font-family="Helvetica,sans-Serif" font-size="20.00">basic&#45;selector</text>
</g>
<!-- basic&#45;modes&#45;&gt;basic&#45;selector -->
<g id="edge4" class="edge"><title>basic&#45;modes&#45;&gt;basic&#45;selector</title>
<path fill="none" stroke="#7f7f7f" d="M156,-212.403C156,-224.254 156,-240.183 156,-253.708"/>
<polygon fill="#7f7f7f" stroke="#7f7f7f" points="152.5,-253.916 156,-263.916 159.5,-253.916 152.5,-253.916"/>
<text text-anchor="middle" x="171.839" y="-233.5" font-family="Helvetica,sans-Serif" font-size="15.00" fill="#7f7f7f"> &#160;is a</text>
</g>
<!-- basic&#45;selector&#45;&gt;core&#45;selector -->
<g id="edge5" class="edge"><title>basic&#45;selector&#45;&gt;core&#45;selector</title>
<path fill="none" stroke="#7f7f7f" d="M156,-300.403C156,-312.254 156,-328.183 156,-341.708"/>
<polygon fill="#7f7f7f" stroke="#7f7f7f" points="152.5,-341.916 156,-351.916 159.5,-341.916 152.5,-341.916"/>
<text text-anchor="middle" x="171.839" y="-321.5" font-family="Helvetica,sans-Serif" font-size="15.00" fill="#7f7f7f"> &#160;is a</text>
</g>
<!-- basic&#45;carousel -->
<g id="node7" class="node"><title>basic&#45;carousel</title>
<text text-anchor="middle" x="72" y="-12" font-family="Helvetica,sans-Serif" font-size="20.00">basic&#45;carousel</text>
</g>
<!-- basic&#45;carousel&#45;&gt;basic&#45;sequence -->
<g id="edge7" class="edge"><title>basic&#45;carousel&#45;&gt;basic&#45;sequence</title>
<path fill="none" stroke="#7f7f7f" stroke-dasharray="5,2" d="M88.9987,-36.4034C101.376,-49.0755 118.308,-66.4107 132.054,-80.4836"/>
<polygon fill="#7f7f7f" stroke="#7f7f7f" points="129.822,-83.2078 139.313,-87.916 134.83,-78.3166 129.822,-83.2078"/>
<text text-anchor="middle" x="140.347" y="-57.5" font-family="Helvetica,sans-Serif" font-size="15.00" fill="#7f7f7f">has a</text>
</g>
<!-- basic&#45;slideshow -->
<g id="node8" class="node"><title>basic&#45;slideshow</title>
<text text-anchor="middle" x="241" y="-12" font-family="Helvetica,sans-Serif" font-size="20.00">basic&#45;slideshow</text>
</g>
<!-- basic&#45;slideshow&#45;&gt;basic&#45;sequence -->
<g id="edge8" class="edge"><title>basic&#45;slideshow&#45;&gt;basic&#45;sequence</title>
<path fill="none" stroke="#7f7f7f" stroke-dasharray="5,2" d="M223.799,-36.4034C211.274,-49.0755 194.141,-66.4107 180.231,-80.4836"/>
<polygon fill="#7f7f7f" stroke="#7f7f7f" points="177.426,-78.3433 172.885,-87.916 182.404,-83.264 177.426,-78.3433"/>
<text text-anchor="middle" x="225.347" y="-57.5" font-family="Helvetica,sans-Serif" font-size="15.00" fill="#7f7f7f">has a</text>
</g>
</g>
</svg>
